<?xml version="1.0" standalone="no"?>
<!DOCTYPE svg PUBLIC "-//W3C//DTD SVG 20010904//EN"
 "http://www.w3.org/TR/2001/REC-SVG-20010904/DTD/svg10.dtd">
<svg version="1.0" xmlns="http://www.w3.org/2000/svg"
 width="1280.000000pt" height="853.000000pt" viewBox="0 0 1280.000000 853.000000"
 preserveAspectRatio="xMidYMid meet">
<metadata>
Created by potrace 1.15, written by Peter Selinger 2001-2017
</metadata>
<g transform="translate(0.000000,853.000000) scale(0.100000,-0.100000)"
fill="#000000" stroke="none">
<path d="M1665 8519 c-117 -11 -221 -35 -369 -84 -453 -150 -746 -360 -967
-694 -118 -178 -262 -480 -299 -628 -79 -310 9 -811 216 -1238 70 -145 151
-266 263 -395 105 -119 169 -213 264 -385 108 -195 267 -561 373 -857 22 -60
41 -108 44 -108 3 1 28 33 55 73 65 93 328 357 474 476 63 51 200 158 305 239
653 500 811 621 984 759 486 388 646 546 718 709 31 71 61 186 75 292 11 84 7
291 -7 392 l-7 45 33 -30 c78 -73 189 -271 238 -425 54 -169 56 -197 32 -345
-12 -71 -24 -178 -27 -236 -8 -150 4 -172 240 -478 200 -259 225 -307 193
-369 -9 -18 -39 -43 -73 -63 -100 -56 -223 -167 -223 -201 0 -31 21 -63 62
-92 42 -30 78 -79 78 -107 0 -29 -39 -67 -88 -85 -26 -10 -48 -18 -50 -20 -2
-1 13 -31 33 -67 49 -90 57 -122 41 -161 -10 -24 -27 -38 -65 -55 -101 -43
-113 -83 -61 -201 46 -105 56 -163 35 -215 -21 -56 -89 -119 -173 -158 -66
-31 -69 -32 -212 -31 -115 0 -183 7 -329 32 -283 49 -340 43 -540 -54 -602
-291 -1051 -906 -1051 -1439 0 -196 102 -397 272 -534 100 -81 224 -138 453
-207 424 -129 800 -89 1272 136 142 68 190 110 248 222 21 40 39 75 41 76 1 2
36 -16 76 -41 440 -267 960 -357 1472 -256 137 28 320 90 453 154 l112 54 50
-55 c71 -77 192 -240 239 -321 72 -123 91 -182 118 -366 22 -149 25 -196 21
-352 -4 -163 -8 -202 -50 -410 -49 -247 -71 -384 -64 -391 7 -7 151 271 200
386 25 58 57 139 71 182 76 223 123 795 82 987 -34 153 -107 330 -211 506 -47
81 -55 99 -43 110 7 7 105 88 218 181 113 92 232 192 265 222 107 97 82 98
262 -18 244 -158 425 -239 600 -270 110 -20 317 -8 418 23 153 48 270 113 370
208 40 38 55 46 63 37 22 -28 77 -147 104 -228 l29 -85 -6 80 c-3 45 -14 114
-25 154 -12 41 -19 75 -17 77 2 2 48 -14 103 -35 453 -176 945 -277 1478 -302
127 -6 234 -14 238 -18 3 -3 14 -64 23 -136 29 -224 20 -635 -21 -1015 l-6
-55 27 45 c85 141 211 420 263 580 54 166 67 247 67 438 l0 172 30 5 c17 2 68
9 114 15 46 5 89 11 95 12 6 1 -47 5 -118 8 l-129 5 -23 100 c-126 560 -584
1095 -1292 1511 -344 203 -775 369 -1401 540 -116 32 -211 61 -211 64 0 17
405 403 484 462 99 74 249 156 344 188 282 94 657 -7 1080 -292 42 -28 187
-133 322 -233 286 -212 538 -383 700 -475 436 -245 1000 -414 1452 -435 93 -4
97 -3 43 6 -562 92 -984 251 -1415 534 -210 137 -298 214 -653 563 -188 186
-380 368 -427 405 -133 107 -283 203 -425 272 -175 85 -278 116 -500 151 l-40
6 38 21 c21 12 83 50 138 84 l101 62 76 -38 c166 -83 374 -147 577 -176 187
-27 563 -14 690 24 41 13 19 13 -44 1 -29 -5 -112 -14 -186 -20 -239 -19 -514
15 -751 95 -111 37 -314 130 -314 143 1 4 46 38 102 77 424 293 921 758 1354
1265 114 134 334 407 334 415 0 4 -39 -30 -87 -74 -180 -164 -449 -374 -683
-534 -424 -288 -1008 -585 -1444 -733 l-99 -34 -76 73 c-43 39 -167 157 -277
261 -427 406 -653 572 -973 716 -509 229 -1074 332 -1796 330 l-270 -1 -85 39
c-108 51 -551 207 -881 311 -1321 414 -2364 609 -2954 550z m4815 -1089 c560
-55 993 -175 1354 -376 217 -121 394 -253 691 -514 104 -91 227 -198 274 -239
47 -40 87 -77 89 -80 4 -10 -129 -39 -233 -51 -403 -45 -836 50 -1305 285
-267 134 -530 304 -1017 658 -169 123 -339 245 -378 272 -38 27 -74 53 -80 58
-12 12 454 2 605 -13z m-665 -1010 c1041 -487 1930 -816 2448 -905 l39 -6
-134 -67 c-199 -100 -279 -152 -501 -320 -295 -223 -477 -352 -499 -352 -39 0
-436 116 -639 186 -390 135 -612 262 -832 473 -266 256 -463 569 -624 991 -44
114 -123 378 -123 409 0 12 88 -28 333 -149 182 -91 422 -208 532 -260z m2642
-2815 c621 -104 1292 -356 1736 -651 299 -199 500 -409 563 -586 16 -45 22
-44 -112 -23 -602 97 -1198 326 -1698 652 -106 69 -192 138 -406 327 -74 65
-182 159 -240 209 -58 49 -109 94 -115 99 -13 14 92 3 272 -27z m-1507 -246
c109 -10 308 -45 395 -70 l40 -12 -30 -10 c-94 -30 -233 -85 -327 -129 l-107
-49 -89 35 c-204 82 -460 117 -706 97 -79 -6 -152 -14 -162 -18 -11 -4 -15 -2
-11 4 11 18 245 91 377 117 214 43 411 55 620 35z m1237 -415 c109 -53 275
-131 368 -174 269 -123 305 -141 305 -155 0 -14 -107 -95 -182 -138 -73 -42
-215 -85 -322 -98 -207 -26 -441 37 -658 176 -125 80 -298 209 -295 220 4 12
110 83 192 129 110 61 288 123 387 135 3 1 95 -42 205 -95z m-1605 61 c47 -8
96 -19 109 -23 23 -9 22 -10 -21 -37 -206 -131 -374 -235 -379 -235 -16 0
-261 281 -249 285 75 25 415 32 540 10z m-1797 -193 c-6 -5 -29 -17 -53 -27
-40 -17 -44 -17 -59 -2 -14 14 -14 17 -2 21 40 14 127 20 114 8z m571 -151
c57 -28 151 -80 207 -117 96 -63 101 -67 77 -76 -45 -17 -315 -3 -418 21 -107
26 -258 83 -255 96 2 12 242 124 266 125 10 0 65 -22 123 -49z"/>
<path d="M10838 5653 c7 -3 16 -2 19 1 4 3 -2 6 -13 5 -11 0 -14 -3 -6 -6z"/>
</g>
</svg>
